<?xml version="1.0" standalone="no"?>
<!DOCTYPE svg PUBLIC "-//W3C//DTD SVG 20010904//EN"
 "http://www.w3.org/TR/2001/REC-SVG-20010904/DTD/svg10.dtd">
<svg version="1.0" xmlns="http://www.w3.org/2000/svg"
 width="260.000000pt" height="260.000000pt" viewBox="0 0 260.000000 260.000000"
 preserveAspectRatio="xMidYMid meet">
<metadata>
Created by potrace 1.14, written by Peter Selinger 2001-2017
</metadata>
<g transform="translate(0.000000,260.000000) scale(0.100000,-0.100000)"
fill="#000000" stroke="none">
<path d="M441 2149 c-66 -23 -115 -57 -155 -110 -70 -90 -69 -79 -70 -724 -2
-610 0 -632 44 -718 31 -59 98 -116 171 -144 40 -15 121 -17 864 -18 451 -1
825 1 830 4 6 3 18 7 27 8 43 7 130 69 170 123 61 82 61 81 62 705 1 314 -2
591 -5 616 -9 57 -41 126 -77 164 -29 32 -102 89 -102 81 0 -3 -17 3 -37 12
-34 15 -116 16 -856 17 -748 1 -822 0 -866 -16z m1538 -203 c-2 -2 -47 -35
-99 -74 -52 -39 -99 -75 -105 -79 -5 -5 -55 -42 -110 -83 -55 -41 -105 -79
-111 -85 -6 -5 -21 -17 -34 -25 -12 -8 -65 -48 -118 -88 -52 -40 -101 -71
-107 -68 -7 2 -87 61 -179 130 -92 69 -170 126 -172 126 -2 0 -12 8 -22 18
-21 19 -50 42 -74 57 -47 30 -217 161 -218 168 0 4 304 7 677 7 372 0 674 -2
672 -4z m-1140 -436 c220 -165 412 -305 426 -312 18 -8 35 -8 58 -1 19 6 180
119 358 253 354 265 351 263 425 321 29 21 54 39 56 39 2 0 4 -244 3 -542 -1
-586 1 -574 -55 -603 -44 -23 -1576 -23 -1620 0 -56 29 -55 16 -56 603 0 298
1 542 2 542 2 0 183 -135 403 -300z"/>
</g>
</svg>
